<svg xmlns="http://www.w3.org/2000/svg" width="217.05557mm" height="218.36447mm" viewBox="0 0 217.05557 218.36447"><path d="M115.811 139.716c33.666 0 60.896-27.447 60.896-61.316 0-33.814-27.23-61.21-60.896-61.21-33.612 0-60.895 27.396-60.895 61.21 0 33.869 27.283 61.316 60.895 61.316" style="fill:#fff;fill-opacity:1;fill-rule:nonzero;stroke:none;stroke-width:5.33442" transform="translate(-97.87 -30.636) scale(1.78219)"/><path d="M115.962 135.604c-31.492 0-57.025-25.533-57.025-57.025 0-31.494 25.533-57.025 57.025-57.025 31.494 0 57.025 25.53 57.025 57.025 0 31.492-25.53 57.025-57.025 57.025zm0-115.621c-32.361 0-58.596 26.234-58.596 58.596 0 32.361 26.235 58.594 58.596 58.594 32.362 0 58.598-26.233 58.598-58.594 0-32.362-26.236-58.596-58.598-58.596" style="fill:#231f20;fill-opacity:1;fill-rule:nonzero;stroke:none;stroke-width:.195372" transform="translate(-97.87 -30.636) scale(1.78219)"/><path d="M115.964 115.055c-20.147 0-36.478-16.331-36.478-36.476 0-20.147 16.331-36.478 36.478-36.478 20.145 0 36.476 16.331 36.476 36.478 0 20.145-16.331 36.476-36.476 36.476zm-.002-73.827c-20.627 0-37.35 16.721-37.35 37.35 0 20.628 16.723 37.35 37.35 37.35 20.627 0 37.353-16.722 37.353-37.35 0-20.629-16.726-37.35-37.353-37.35M68.43 80.468a2.237 2.237 0 1 0 0-4.474 2.237 2.237 0 0 0 0 4.474M164.577 80.468a2.237 2.237 0 1 0 0-4.474 2.237 2.237 0 0 0 0 4.474M74.18 88.418l-.285-1.128.297-.076.914 3.616-.299.075-.283-1.128-7.964 2.017.286 1.127-.3.074-.914-3.614.3-.077.284 1.127 7.964-2.014M75.592 93.283l-.463-1.038.282-.125 1.148 2.589-3.971 6.552.01.023 5.466-2.425-.541-1.223.28-.125 1.152 2.6-.28.127-.46-1.041-7.866 3.489-.15-.192 5.288-8.733-.01-.022-7.244 3.212.55 1.245-.279.125-1.164-2.622.281-.125.461 1.04 7.51-3.332M82.91 106.093l-.677-.889.244-.185 2.23 2.928-.245.188-.703-.926-6.535 4.976.703.924-.244.188-2.23-2.929.245-.187.674.886 3.249-2.473-2.327-3.056-3.247 2.474.676.889-.244.184-2.231-2.929.244-.184.703.922 6.535-4.976-.701-.922.244-.188 2.23 2.929-.245.185-.676-.885-3.044 2.316 2.327 3.057 3.044-2.317M79.93 114.967l-.778-.69-.203.229 2.06 1.83.202-.228-.969-.862 2.52-1.477 1.718 1.528-1.217 2.634-.962-.854-.203.229 2.976 2.645.203-.229-.85-.756 3.624-8.374-.185-.164zm4.722-.033-1.544-1.37 2.89-1.649.02.017-1.366 3.003M95.151 116.295l-1.035-.47.129-.28 3.422 1.562-.128.277-1.11-.504-2.433 5.34c-.662 1.45-.66 2.278 1.159 3.106 2.12.965 2.731.186 3.347-1.162l2.391-5.25-1.211-.553.127-.279 2.495 1.135-.13.28-.943-.43-2.448 5.374c-.701 1.54-1.5 2.278-4.136 1.075-2.704-1.229-2.68-2.225-1.995-3.734l2.5-5.486M104.867 120.209l-1.116-.219.059-.3 2.778.54 3.1 7.006.024.006 1.143-5.87-1.313-.256.059-.3 2.792.544-.06.3-1.115-.218-1.643 8.448-.242.016-4.134-9.338-.023-.004-1.515 7.78 1.337.259-.059.3-2.815-.546.058-.303 1.116.217 1.569-8.061M115.296 121.707l-1.163.004v-.307l3.728-.006v.307l-1.162.002.015 8.214 1.16-.002.003.308-3.728.006v-.307l1.16-.004-.013-8.213M120.032 121.442l-1 .162-.05-.303 3.705-.604.051.3-1.256.204 3.083 6.078.023-.004 1.11-6.76-1.255.204-.05-.303 2.584-.422.049.304-.9.147-1.577 9.038-.268.044-4.25-8.086M129.245 119.56l-1.08.426-.113-.285 6.578-2.595 1.065 2.491-.3.122c-1.158-1.89-1.664-1.929-4.291-.891l-.553.217 1.404 3.557.624-.244c1.338-.528 1.234-1.06.732-2.301l.344-.137 1.545 3.917-.343.137c-.579-1.432-.798-1.788-2.138-1.258l-.623.246 1.471 3.723 1.74-.687c1.761-.694 1.986-1.806 1.581-3.538l.311-.123 1.004 2.848-6.91 2.728-.113-.286 1.08-.426-3.015-7.64M142.296 122.456l-.969.638.168.256 3.074-2.026-.17-.254-.93.614-2.284-3.466.65-.428c1.317-.87 1.837-.577 2.804.71 1.051 1.392 1.461 1.814 2.716.987l.754-.498-.17-.256-.258.172c-.63.414-1.065-.07-1.837-1.128-1.156-1.574-1.756-1.475-3.423-.642l-.013-.022c.91-.78 1.437-1.632.65-2.827-.987-1.495-2.094-1.163-3.403-.3l-3.02 1.993.17.254.968-.638zm-3.348-7.63.535-.355c1.053-.694 1.778-.358 2.409.601.559.844.723 1.743-.197 2.35l-.721.475-2.026-3.07M148.036 115.252l.243-.24c1.059.951 2.674 1.11 3.698.1.73-.72 1.077-1.81.244-2.652-1.67-1.692-4.482 2.28-6.623.114-1.1-1.114-.766-2.677.27-3.7.518-.512 1.307-.977 1.998-1.226l1.413 1.325-.229.233c-1.2-.794-2.188-.776-3.008.038-.616.608-.874 1.524-.188 2.216 1.555 1.577 4.265-2.39 6.588-.033 1.19 1.203.78 3-.31 4.075-.653.647-1.33 1.122-2.28 1.47l-1.816-1.716M150.076 104.724l-.695.93-.247-.182 2.23-2.99.246.185-.694.931 6.584 4.91.694-.932.246.186-2.23 2.987-.245-.184.695-.93-6.584-4.912M154.122 98.655l-.48.95c-.577 1.135.367 2.14 1.367 2.706l-.168.328-2.522-1.28 3.558-7.008 2.522 1.282-.168.328c-1.045-.474-2.42-.63-2.993.493l-.48.951 7.255 3.683.616-1.215.271.138-1.865 3.681-.274-.14.615-1.214-7.254-3.683M161.283 91.358l-4.539 1.182-.266.996-.297-.078 1.01-3.8.297.079-.328 1.24 3.994-.955-3.02-2.708-.325 1.217-.297-.078.672-2.526.297.078-.248.932 3.388 3.057 4.015 1.07.293-1.103.295.078-.954 3.591-.297-.078.301-1.133-3.991-1.06M90.597 41.253c.79-.485.912-1.715.277-2.755-.635-1.037-1.787-1.487-2.575-1.006-.789.48-.914 1.715-.279 2.753.635 1.037 1.79 1.49 2.577 1.008zm-4.341.072c-1.067-1.746-.502-4.034 1.26-5.112 1.764-1.077 4.058-.538 5.125 1.207 1.066 1.743.502 4.032-1.263 5.111-1.762 1.078-4.057.537-5.122-1.206" style="fill:#231f20;fill-opacity:1;fill-rule:nonzero;stroke:none;stroke-width:.195372" transform="translate(-97.87 -30.636) scale(1.78219)"/><path d="m88.05 35.048-.645-1.055-1.82 1.11.645 1.055-2.37 1.45.741 1.21 6.56-4.006-.742-1.214-2.37 1.45M92.94 31.137l-1.82 1.111 6.028 9.859 1.817-1.112-3.44-5.627 1.633-.998-.743-1.211-1.631.996-1.845-3.018M119.745 25.834v3.523h-.766v-3.523h-2.036v11.553h2.036V30.89h.766v6.497h2.033V25.834h-2.033" style="fill:#231f20;fill-opacity:1;fill-rule:nonzero;stroke:none;stroke-width:.195372" transform="translate(-97.87 -30.636) scale(1.78219)"/><path d="M112.744 27.774h3.218v-1.42h-5.351v6.842c0 .717.615 1.297 1.381 1.297h5.707v-1.42h-4.955v-5.299M74.492 59.475l2.656 1.405 3.68-6.957 1.26.666-4.032 7.622c-.36.676-1.162.945-1.795.611l-2.765-1.461.996-1.886M70.878 51.068l.996-1.883 6.819 3.607-.998 1.885-6.817-3.609M72.36 58.258c.429-.813.144-1.805-.638-2.22-.781-.414-1.762-.091-2.192.72-.43.81-.145 1.805.637 2.217.783.414 1.764.092 2.194-.717zm-3.152 2.532c-1.518-.805-1.974-2.926-1.012-4.738.959-1.813 2.967-2.631 4.487-1.828 1.518.805 1.972 2.926 1.012 4.74-.959 1.813-2.967 2.631-4.487 1.826M140.218 37.58c.656.432 1.518.285 1.926-.332.408-.62.211-1.47-.445-1.903-.655-.436-1.519-.285-1.927.332-.408.616-.209 1.47.446 1.903zm-2.161-3.04c.816-1.233 2.778-1.372 4.38-.31 1.602 1.06 2.239 2.92 1.422 4.155-.816 1.233-2.778 1.371-4.38.31-1.6-1.062-2.237-2.922-1.422-4.155" style="fill:#231f20;fill-opacity:1;fill-rule:nonzero;stroke:none;stroke-width:.195372" transform="translate(-97.87 -30.636) scale(1.78219)"/><path d="m143.447 34.636.684-1.032-1.776-1.178-.686 1.032-2.235-1.481-.785 1.186 6.248 4.14.787-1.184-2.237-1.483M149.252 37.523l-1.778-1.176-3.59 5.418 1.779 1.178 1.58-2.388 1.594 1.057.784-1.184-1.594-1.055 1.225-1.85M137.135 38.047l-.786 1.184 6.405 4.241-1.661 2.507 1.778 1.178 2.444-3.692-8.18-5.418M154.769 58.795l3.73-2.094-1.044-1.86-3.731 2.092-2.745-4.892-1.24.696 6.095 10.863 1.24-.696-2.305-4.109" style="fill:#231f20;fill-opacity:1;fill-rule:nonzero;stroke:none;stroke-width:.195372" transform="translate(-97.87 -30.636) scale(1.78219)"/><path d="m152.667 56.193 4.22-2.366-1.044-1.86-4.22 2.368" style="fill:#231f20;fill-opacity:1;fill-rule:nonzero;stroke:none;stroke-width:.195372" transform="translate(-97.87 -30.636) scale(1.78219)"/><path d="m163.535 56.412-4.304-7.667-1.238.696 3.919 6.985-6.627 3.717 1.041 1.86 6.795-3.813c.602-.338.776-1.131.414-1.778M116.462 109.803l-.048.022-.048-.022L91.5 99.214l-.085-.033.01-.09 4.091-38.52.012-.107H105.896v-3.933c0-2.221.628-4.099 1.812-5.43 1.258-1.412 3.13-2.158 5.413-2.158h12.252v9.349H128.63V60.464H137.302l.011.107 4.09 38.52.007.09-.08.033zm21.603-50.193h-8.585v-2.168h-3.255V48.09h-13.104c-2.534 0-4.624.844-6.048 2.444-1.327 1.487-2.026 3.562-2.026 5.994v3.081H94.762l-4.257 40.102 25.908 11.039 25.91-11.039-4.258-40.102" style="fill:#231f20;fill-opacity:1;fill-rule:nonzero;stroke:none;stroke-width:.195372" transform="translate(-97.87 -30.636) scale(1.78219)"/><path d="M128.63 64.864h-3.257v5.917h3.257v1.517h8.413l-1.096-10.32h-7.317v2.886M96.88 61.978l-1.096 10.32h10.113v-10.32H96.88" style="fill:#33bdf2;fill-opacity:1;fill-rule:evenodd;stroke:none;stroke-width:.195372" transform="translate(-97.87 -30.636) scale(1.78219)"/><path d="M137.191 73.694h-8.56v3.609h-3.258V82.3H115.24v-8.606h-3.81v.968c0 4.937-4.592 7.521-9.126 7.521h-.456V76.832h.294c2.139 0 3.755-1.123 3.755-2.614v-.523h-10.26L93.032 98.23l23.382 9.96 23.385-9.96-2.607-24.535" style="fill:#1c63b7;fill-opacity:1;fill-rule:evenodd;stroke:none;stroke-width:.195372" transform="translate(-97.87 -30.636) scale(1.78219)"/><path d="M115.24 72.298v-10.32h-3.81v10.32h3.81" style="fill:#33bdf2;fill-opacity:1;fill-rule:evenodd;stroke:none;stroke-width:.195372" transform="translate(-97.87 -30.636) scale(1.78219)"/><path d="M114.395 59.61h-2.116v-3.032c0-1.477.932-1.999 1.731-1.999h.385zm-.385-5.883c-1.242 0-2.58.893-2.58 2.851v3.884h3.81v-6.735h-1.23" style="fill:#231f20;fill-opacity:1;fill-rule:evenodd;stroke:none;stroke-width:.195372" transform="translate(-97.87 -30.636) scale(1.78219)"/><path d="M105.416 89.832v.66h1.64v5.588h.847v-7.676h-.664c-.121 1.204-.727 1.407-1.823 1.428M112.3 92.663c-.99 0-1.195-.934-1.195-1.73 0-.778.225-1.763 1.186-1.763 1.022 0 1.258 1.076 1.258 1.895 0 .8-.285 1.598-1.248 1.598zm-.04-4.259c-1.165 0-2.036 1.043-2.036 2.68 0 1.241.604 2.345 1.975 2.345.553 0 1.116-.287 1.413-.942h.021c-.04.819-.03 2.986-1.33 2.986-.723 0-1.02-.37-1.02-1.063h-.87c.032 1.104.655 1.829 1.79 1.829 2.208 0 2.268-2.67 2.268-4.267 0-1.583-.154-3.568-2.211-3.568M118.656 91.047c-.531 0-.877.184-1.236.552l.338-2.273h2.577v-.764h-3.263l-.45 3.949h.757c.205-.47.564-.698 1.074-.698 1.082 0 1.278.923 1.278 1.804 0 .955-.328 1.856-1.227 1.856-.87 0-1.174-.573-1.133-1.393h-.881c-.061 1.352.676 2.159 2.033 2.159 1.585 0 2.087-1.391 2.087-2.755 0-1.25-.543-2.427-1.954-2.436M124.603 93.396h-2.12l2.12-3.66zm.85 0v-4.992h-.78l-2.865 4.972v.786h2.795v1.918h.85v-1.918h.686v-.766h-.686" style="fill:#fff;fill-opacity:1;fill-rule:nonzero;stroke:none;stroke-width:.195372" transform="translate(-97.87 -30.636) scale(1.78219)"/></svg>